<?xml version="1.0" encoding="UTF-8"?>
<svg width="25px" height="24px" viewBox="0 0 25 24" version="1.1" xmlns="http://www.w3.org/2000/svg" xmlns:xlink="http://www.w3.org/1999/xlink">
    <!-- Generator: sketchtool 51.2 (57519) - http://www.bohemiancoding.com/sketch -->
    <title>B9BAEB4A-DB42-44F0-91B6-72AD275C8DA6</title>
    <desc>Created with sketchtool.</desc>
    <defs/>
    <g id="Page-1" stroke="none" stroke-width="1" fill="none" fill-rule="evenodd">
        <g id="Programs2" transform="translate(-608.000000, -855.000000)">
            <g id="Group-11" transform="translate(608.000000, 854.000000)">
                <g id="Group-6" transform="translate(0.000000, 1.527833)" stroke="#CACACA" stroke-linecap="round" stroke-linejoin="round" stroke-width="1.5">
                    <polygon id="Stroke-1" points="0.833333333 22.5 23.75 22.5 23.75 3.055 0.833333333 3.055"/>
                    <path d="M7.91666667,0.972166667 L7.91666667,5.13883333" id="Stroke-3"/>
                    <path d="M16.6666667,0.972166667 L16.6666667,5.13883333" id="Stroke-4"/>
                    <path d="M1.38883333,8.61116667 L23.1938333,8.61116667" id="Stroke-5"/>
                </g>
                <polygon id="Fill-7" fill="#CACACA" points="5.13833333 15.9261667 10.8333333 15.9261667 10.8333333 13.6111667 5.13833333 13.6111667"/>
                <polygon id="Fill-8" fill="#CACACA" points="13.6116667 15.9261667 19.445 15.9261667 19.445 13.6111667 13.6116667 13.6111667"/>
                <polygon id="Fill-9" fill="#CACACA" points="5.13833333 20.4861667 10.8333333 20.4861667 10.8333333 18.1711667 5.13833333 18.1711667"/>
                <polygon id="Fill-10" fill="#CACACA" points="13.6116667 20.4861667 19.445 20.4861667 19.445 18.1711667 13.6116667 18.1711667"/>
            </g>
        </g>
    </g>
</svg>