<?xml version="1.0" encoding="UTF-8"?>
<svg width="26px" height="27px" viewBox="0 0 26 27" version="1.1" xmlns="http://www.w3.org/2000/svg" xmlns:xlink="http://www.w3.org/1999/xlink">
    <!-- Generator: sketchtool 51.2 (57519) - http://www.bohemiancoding.com/sketch -->
    <title>35EA0B18-4B39-4A9F-A66C-082EFE539CD4</title>
    <desc>Created with sketchtool.</desc>
    <defs>
        <polygon id="path-1" points="1.18181818e-05 0.0337895894 25.9666727 0.0337895894 25.9666727 26.1290323 1.18181818e-05 26.1290323"/>
    </defs>
    <g id="Page-1" stroke="none" stroke-width="1" fill="none" fill-rule="evenodd">
        <g id="Programs2" transform="translate(-963.000000, -853.000000)">
            <g id="Group-6" transform="translate(963.000000, 853.000000)">
                <path d="M13.4814815,7.54418608 C14.7442467,7.54418608 15.771682,8.59283225 15.771682,9.88168353 C15.771682,10.3222155 16.1214131,10.6791318 16.5525649,10.6791318 C16.9836022,10.6791318 17.3333333,10.3222155 17.3333333,9.88168353 C17.3333333,7.98647222 16.0131957,6.4002297 14.2623644,6.03068337 L14.2623644,4.65459108 C14.2623644,4.21405912 13.9126333,3.85714286 13.4814815,3.85714286 C13.0503297,3.85714286 12.7005986,4.21405912 12.7005986,4.65459108 L12.7005986,6.03068337 C10.9497672,6.4002297 9.62962963,7.98647222 9.62962963,9.88168353 C9.62962963,12.0506632 11.3575578,13.8152469 13.4814815,13.8152469 C14.7442467,13.8152469 15.771682,14.8647117 15.771682,16.1548494 C15.771682,17.4439345 14.7442467,18.4928146 13.4814815,18.4928146 C12.2187163,18.4928146 11.1912809,17.4439345 11.1912809,16.1548494 C11.1912809,15.7143174 10.8415498,15.3574011 10.410398,15.3574011 C9.97936074,15.3574011 9.62962963,15.7143174 9.62962963,16.1548494 C9.62962963,18.0502946 10.9497672,19.636771 12.7005986,20.0063173 L12.7005986,21.3811232 C12.7005986,21.8216552 13.0503297,22.1785714 13.4814815,22.1785714 C13.9126333,22.1785714 14.2623644,21.8216552 14.2623644,21.3811232 L14.2623644,20.0063173 C16.0131957,19.636771 17.3333333,18.0502946 17.3333333,16.1548494 C17.3333333,13.985285 15.6054051,12.2204674 13.4814815,12.2204674 C12.2187163,12.2204674 11.1912809,11.1712365 11.1912809,9.88168353 C11.1912809,8.59283225 12.2187163,7.54418608 13.4814815,7.54418608" id="Fill-1" fill="#CACACA"/>
                <g id="Group-5">
                    <mask id="mask-2" fill="white">
                        <use xlink:href="#path-1"/>
                    </mask>
                    <g id="Clip-4"/>
                    <path d="M12.9833482,24.5093292 C6.71285727,24.5093292 1.61165727,19.3829318 1.61165727,13.0815594 C1.61165727,6.78006818 6.71285727,1.65343328 12.9833482,1.65343328 C19.2538391,1.65343328 24.3550391,6.78006818 24.3550391,13.0815594 C24.3550391,19.3829318 19.2538391,24.5093292 12.9833482,24.5093292 M12.9833482,0.0337895894 C5.82401182,0.0337895894 1.18181818e-05,5.88693035 1.18181818e-05,13.0815594 C1.18181818e-05,20.2760696 5.82401182,26.1290916 12.9833482,26.1290916 C20.1426845,26.1290916 25.9666845,20.2760696 25.9666845,13.0815594 C25.9666845,5.88693035 20.1426845,0.0337895894 12.9833482,0.0337895894" id="Fill-3" fill="#CACACA" mask="url(#mask-2)"/>
                </g>
            </g>
        </g>
    </g>
</svg>