<svg width="34px" height="28px" viewBox="0 0 34 28" version="1.1" xmlns="http://www.w3.org/2000/svg" xmlns:xlink="http://www.w3.org/1999/xlink">
    <g id="Accout-Pages" stroke="none" stroke-width="1" fill="none" fill-rule="evenodd">
        <g id="Proccess-S1-" transform="translate(-522.000000, -269.000000)">
            <g id="icons" transform="translate(160.000000, 270.000000)">
                <g id="Group-17" transform="translate(363.000000, 0.000000)">
                    <path d="M28.5828571,12.9691008 C28.5828571,20.1044608 22.7985371,25.8887808 15.6631771,25.8887808 C8.52717714,25.8887808 2.74285714,20.1044608 2.74285714,12.9691008 C2.74285714,12.3643008 2.78445714,11.7691008 2.86509714,11.1860608 C3.73357714,4.89422085 9.13197714,0.0494208494 15.6631771,0.0494208494 C22.7985371,0.0494208494 28.5828571,5.83374085 28.5828571,12.9691008 Z" id="Stroke-1" class="color-stroke" stroke-width="1.5"></path>
                    <path d="M22.6628571,1.87799228 C19.1620571,8.47639228 12.2212571,12.9711123 4.23085714,12.9711123 C3.73037714,12.9711123 3.23437714,12.9531923 2.74285714,12.9186323" id="Stroke-3" class="color-stroke" stroke-width="1.5"></path>
                    <path d="M28.4855771,13.34144 C22.3460571,11.17888 17.5230171,6.22272 15.5428571,0" id="Stroke-5" class="color-stroke" stroke-width="1.5"></path>
                    <path d="M4.24,19.2845294 C1.89824,19.2845294 0,17.3862894 0,15.0445294 C0,13.1718894 1.21408,11.5821294 2.89856,11.0208494" id="Stroke-7" class="color-stroke" stroke-width="1.5"></path>
                    <path d="M27.4285714,19.2845294 C29.7703314,19.2845294 31.6685714,17.3862894 31.6685714,15.0445294 C31.6685714,13.1718894 30.4544914,11.5821294 28.7700114,11.0208494" id="Stroke-9" class="color-stroke" stroke-width="1.5"></path>
                    <path d="M18.96832,19.5137408 C18.46848,20.6958208 17.29792,21.5252608 15.93344,21.5252608 C14.46976,21.5252608 13.2288,20.5703808 12.8,19.2494208" id="Stroke-11" class="color-stroke" stroke-width="1.5" stroke-linecap="round" stroke-linejoin="round"></path>
                    <path d="M11.0285714,15.1640266 C11.0285714,15.9371466 10.4020114,16.5643466 9.62825143,16.5643466 C8.85513143,16.5643466 8.22857143,15.9371466 8.22857143,15.1640266 C8.22857143,14.3909066 8.85513143,13.7637066 9.62825143,13.7637066 C10.4020114,13.7637066 11.0285714,14.3909066 11.0285714,15.1640266" id="Fill-13" class="color-fill"></path>
                    <path d="M23.8285714,15.1640266 C23.8285714,15.9371466 23.2020114,16.5643466 22.4282514,16.5643466 C21.6551314,16.5643466 21.0285714,15.9371466 21.0285714,15.1640266 C21.0285714,14.3909066 21.6551314,13.7637066 22.4282514,13.7637066 C23.2020114,13.7637066 23.8285714,14.3909066 23.8285714,15.1640266" id="Fill-15" class="color-fill"></path>
                </g>
            </g>
        </g>
    </g>
</svg>