 <svg width="39px" height="32px" viewBox="0 0 39 32" version="1.1" xmlns="http://www.w3.org/2000/svg" xmlns:xlink="http://www.w3.org/1999/xlink">
                <g id="Symbols" stroke="none" stroke-width="1" fill="none" fill-rule="evenodd">
                    <g id="Inside-Navigation2" transform="translate(-133.000000, -37.000000)">
                        <g id="Group-17" transform="translate(134.000000, 38.000000)">
                            <path d="M33.0489286,14.9955229 C33.0489286,23.2457829 26.3608086,29.9339029 18.1105486,29.9339029 C9.85954857,29.9339029 3.17142857,23.2457829 3.17142857,14.9955229 C3.17142857,14.2962229 3.21952857,13.6080229 3.31276857,12.9338829 C4.31694857,5.65894286 10.5588486,0.0571428571 18.1105486,0.0571428571 C26.3608086,0.0571428571 33.0489286,6.74526286 33.0489286,14.9955229 Z" id="Stroke-1" class="color-stroke" stroke-width="1.5"></path>
                            <path d="M26.2039286,2.17142857 C22.1561286,9.80082857 14.1308286,14.9978486 4.89192857,14.9978486 C4.31324857,14.9978486 3.73974857,14.9771286 3.17142857,14.9371686" id="Stroke-3" class="color-stroke" stroke-width="1.5"></path>
                            <path d="M32.9364486,15.42604 C25.8376286,12.92558 20.2609886,7.19502 17.9714286,0" id="Stroke-5" class="color-stroke" stroke-width="1.5"></path>
                            <path d="M4.9025,22.2977371 C2.19484,22.2977371 0,20.1028971 0,17.3952371 C0,15.2299971 1.40378,13.3918371 3.35146,12.7428571" id="Stroke-7" class="color-stroke" stroke-width="1.5"></path>
                            <path d="M31.7142857,22.2977371 C34.4219457,22.2977371 36.6167857,20.1028971 36.6167857,17.3952371 C36.6167857,15.2299971 35.2130057,13.3918371 33.2653257,12.7428571" id="Stroke-9" class="color-stroke" stroke-width="1.5"></path>
                            <path d="M21.93212,22.5627629 C21.35418,23.9295429 20.00072,24.8885829 18.42304,24.8885829 C16.73066,24.8885829 15.2958,23.7845029 14.8,22.2571429" id="Stroke-11" class="color-stroke" stroke-width="1.5" stroke-linecap="round" stroke-linejoin="round"></path>
                            <path d="M12.7517857,17.5334057 C12.7517857,18.4273257 12.0273257,19.1525257 11.1326657,19.1525257 C10.2387457,19.1525257 9.51428571,18.4273257 9.51428571,17.5334057 C9.51428571,16.6394857 10.2387457,15.9142857 11.1326657,15.9142857 C12.0273257,15.9142857 12.7517857,16.6394857 12.7517857,17.5334057" id="Fill-13" class="color-fill"></path>
                            <path d="M27.5517857,17.5334057 C27.5517857,18.4273257 26.8273257,19.1525257 25.9326657,19.1525257 C25.0387457,19.1525257 24.3142857,18.4273257 24.3142857,17.5334057 C24.3142857,16.6394857 25.0387457,15.9142857 25.9326657,15.9142857 C26.8273257,15.9142857 27.5517857,16.6394857 27.5517857,17.5334057" id="Fill-15" class="color-fill"></path>
                        </g>
                    </g>
                </g>
            </svg>