<svg width="32px" height="32px" viewBox="0 0 32 32">
                <g id="Symbols" stroke="none" stroke-width="1" fill="none" fill-rule="evenodd" stroke-linecap="round" stroke-linejoin="round">
                    <g id="Inside-Navigation2" transform="translate(-1120.000000, -37.000000)" class="color-stroke" stroke-width="2">
                        <g id="Group-5" transform="translate(1121.000000, 38.000000)">
                            <path d="M3.2456087,17.6086957 L1.95691304,17.6086957 C1.2356087,17.6086957 0.652565217,17.0243478 0.652565217,16.3043478 L0.652565217,13.6956522 C0.652565217,12.9756522 1.2356087,12.3913043 1.95691304,12.3913043 L3.2456087,12.3913043 C3.79082609,12.3913043 4.29821739,12.0586957 4.46778261,11.5408696 C4.64126087,11.0113043 4.85517391,10.5 5.1056087,10.0095652 C5.35473913,9.52173913 5.23473913,8.92565217 4.84604348,8.53826087 L3.9356087,7.62652174 C3.4256087,7.11782609 3.4256087,6.29086957 3.9356087,5.78217391 L5.78256522,3.93521739 C6.29126087,3.42652174 7.11691304,3.42652174 7.62691304,3.93521739 L8.53734783,4.84695652 C8.92604348,5.23434783 9.52213043,5.35434783 10.0099565,5.10521739 C10.5003913,4.85478261 11.0116957,4.64217391 11.5412609,4.4673913 C12.059087,4.29782609 12.3916957,3.79043478 12.3916957,3.24521739 L12.3916957,1.95652174 C12.3916957,1.23652174 12.9747391,0.652173913 13.6960435,0.652173913 L16.3047391,0.652173913 C17.0247391,0.652173913 17.609087,1.23652174 17.609087,1.95652174 L17.609087,3.24521739 C17.609087,3.79043478 17.9416957,4.29782609 18.4595217,4.4673913 C18.989087,4.64217391 19.499087,4.85478261 19.9895217,5.10521739 C20.4773478,5.35434783 21.0747391,5.23434783 21.4621304,4.84695652 L22.3738696,3.93521739 C22.8825652,3.42652174 23.7082174,3.42652174 24.2182174,3.93521739 L26.0651739,5.78217391 C26.5738696,6.29086957 26.5738696,7.11782609 26.0651739,7.62652174 L25.1534348,8.53826087 C24.7660435,8.92565217 24.6447391,9.52173913 24.8951739,10.0095652 C25.1456087,10.5 25.3582174,11.0113043 25.533,11.5408696 C25.7025652,12.0586957 26.2086522,12.3913043 26.7538696,12.3913043 L28.0438696,12.3913043 C28.7638696,12.3913043 29.3482174,12.9756522 29.3482174,13.6956522 L29.3482174,16.3043478 C29.3482174,17.0243478 28.7638696,17.6086957 28.0438696,17.6086957 L26.7538696,17.6086957 C26.2086522,17.6086957 25.7025652,17.9413043 25.533,18.4591304 C25.3582174,18.9886957 25.1456087,19.5 24.8951739,19.9904348 C24.6447391,20.4782609 24.7660435,21.0743478 25.1534348,21.4617391 L26.0651739,22.3734783 C26.5738696,22.8821739 26.5738696,23.7091304 26.0651739,24.2178261 L24.2182174,26.0647826 C23.7082174,26.5734783 22.8825652,26.5734783 22.3738696,26.0647826 L21.4621304,25.1530435 C21.0747391,24.7656522 20.4773478,24.6456522 19.9895217,24.8947826 C19.499087,25.1452174 18.989087,25.3578261 18.4595217,25.5326087 C17.9416957,25.7021739 17.609087,26.2095652 17.609087,26.7547826 L17.609087,28.0434783 C17.609087,28.7634783 17.0247391,29.3478261 16.3047391,29.3478261 L13.6960435,29.3478261 C12.9747391,29.3478261 12.3916957,28.7634783 12.3916957,28.0434783 L12.3916957,26.7547826 C12.3916957,26.2095652 12.059087,25.7021739 11.5412609,25.5326087 C11.0116957,25.3578261 10.5003913,25.1452174 10.0099565,24.8947826 C9.52213043,24.6456522 8.92604348,24.7656522 8.53734783,25.1530435 L7.62691304,26.0647826 C7.11691304,26.5734783 6.29126087,26.5734783 5.78256522,26.0647826 L3.9356087,24.2178261 C3.4256087,23.7091304 3.4256087,22.8821739 3.9356087,22.3734783 L4.84604348,21.4617391 C5.23473913,21.0743478 5.35473913,20.4782609 5.1056087,19.9904348 C4.85517391,19.5 4.64126087,18.9886957 4.46778261,18.4591304 C4.29821739,17.9413043 3.79082609,17.6086957 3.2456087,17.6086957 Z" id="Stroke-1"></path>
                            <path d="M20.2173913,15 C20.2173913,17.8813043 17.8813043,20.2173913 15,20.2173913 C12.1186957,20.2173913 9.7826087,17.8813043 9.7826087,15 C9.7826087,12.1186957 12.1186957,9.7826087 15,9.7826087 C17.8813043,9.7826087 20.2173913,12.1186957 20.2173913,15 Z" id="Stroke-3"></path>
                        </g>
                    </g>
                </g>
            </svg>