<svg height='300px' width='300px'  fill="#000000" xmlns="http://www.w3.org/2000/svg" xmlns:xlink="http://www.w3.org/1999/xlink" xml:space="preserve" version="1.1" style="shape-rendering:geometricPrecision;text-rendering:geometricPrecision;image-rendering:optimizeQuality;" viewBox="0 0 50798 50798" x="0px" y="0px" fill-rule="evenodd" clip-rule="evenodd"><defs><style type="text/css">
   
    .fil0 {fill:#000000}
   
  </style></defs><g><path class="fil0" d="M11688 22517c3106,0 5625,-2518 5625,-5624 0,-3106 -2519,-5625 -5625,-5625 -3107,0 -5625,2519 -5625,5625 0,3106 2518,5624 5625,5624z"></path><path class="fil0" d="M16571 21888c-1265,1205 -2987,1947 -4883,1947 -1897,0 -3619,-742 -4884,-1947l-647 -135c-212,-27 -416,-27 -607,3 -190,29 -365,88 -571,161 -205,73 -439,161 -732,337 -293,175 -645,439 -982,879 -336,438 -658,1055 -952,1787 -293,732 -556,1581 -703,2402 -146,820 -175,1611 -190,2211 -15,601 -15,1012 44,1407 58,396 176,776 440,1156 263,382 673,763 1157,1055 482,293 1039,498 1802,601 761,102 1727,102 2899,102l3398 0 1037 0c169,-622 473,-1265 695,-1820 361,-902 949,-1628 1364,-2167 414,-542 847,-866 1207,-1082 360,-217 649,-325 901,-414 253,-91 469,-163 703,-199 235,-36 487,-36 747,-3l796 165c-1025,-1206 -1643,-2770 -1643,-4478 0,-760 122,-1492 349,-2175l-745 207z"></path><path class="fil0" d="M25066 16416c-3822,0 -6921,3099 -6921,6921 0,3823 3099,6921 6921,6921 3822,0 6921,-3098 6921,-6921 0,-3822 -3099,-6921 -6921,-6921z"></path><path class="fil0" d="M25066 31880c-2334,0 -4452,-913 -6009,-2397l-796 -165c-260,-33 -512,-33 -747,3 -234,36 -450,108 -703,199 -252,89 -540,197 -901,414 -360,216 -793,540 -1207,1082 -415,540 -811,1297 -1172,2199 -360,900 -685,1946 -865,2955 -180,1009 -216,1983 -234,2721 -18,739 -18,1244 54,1731 72,487 216,955 541,1423 324,469 829,938 1423,1298 595,361 1280,613 2218,739 936,126 2126,126 3568,126l4181 0 649 0 649 0 4181 0c1442,0 2632,0 3568,-126 938,-126 1623,-378 2218,-739 594,-360 1099,-829 1423,-1298 325,-468 469,-936 541,-1423 72,-487 72,-992 54,-1731 -18,-738 -54,-1712 -234,-2721 -180,-1009 -505,-2055 -865,-2955 -361,-902 -757,-1659 -1172,-2199 -414,-542 -847,-866 -1207,-1082 -361,-217 -649,-325 -901,-414 -253,-91 -469,-163 -703,-199 -235,-36 -487,-36 -747,-3l-796 165c-1557,1484 -3675,2397 -6009,2397z"></path><path class="fil0" d="M34669 28785c360,216 793,540 1207,1082 415,539 1003,1265 1364,2167 222,555 526,1198 695,1820l1037 0 3398 0c1172,0 2138,0 2899,-102 763,-103 1320,-308 1802,-601 484,-292 894,-673 1157,-1055 264,-380 382,-760 440,-1156 59,-395 59,-806 44,-1407 -15,-600 -44,-1391 -190,-2211 -147,-821 -410,-1670 -703,-2402 -294,-732 -616,-1349 -952,-1787 -337,-440 -689,-704 -982,-879 -293,-176 -527,-264 -732,-337 -206,-73 -381,-132 -571,-161 -191,-30 -395,-30 -607,-3l-647 135c-1265,1205 -2987,1947 -4884,1947 -1896,0 -3618,-742 -4883,-1947l-745 -207c227,683 349,1415 349,2175 0,1708 -618,3272 -1643,4478l796 -165c260,-33 512,-33 747,3 234,36 450,108 703,199 252,89 541,197 901,414z"></path><path class="fil0" d="M32819 16893c0,3106 2519,5624 5625,5624 3107,0 5625,-2518 5625,-5624 0,-3106 -2518,-5625 -5625,-5625 -3106,0 -5625,2519 -5625,5625z"></path></g></svg>