<svg width="28px" height="28px" viewBox="0 0 28 28" version="1.1" xmlns="http://www.w3.org/2000/svg" xmlns:xlink="http://www.w3.org/1999/xlink">
    <g id="Accout-Pages" stroke="none" stroke-width="1" fill="none" fill-rule="evenodd" stroke-linecap="round" stroke-linejoin="round">
        <g id="Proccess-S2" transform="translate(-159.000000, -269.000000)" class="color-stroke" stroke-width="1.5">
            <g id="Group-7" transform="translate(160.000000, 270.000000)">
                <path stroke="#000" d="M16.8103448,8.18107757 C16.8103448,10.5860776 14.6451724,12.4867672 12.1572414,12.0373707 C10.3809483,11.7168534 8.96551724,9.79374998 8.96551724,7.98943964 L8.96551724,6.80374998 C8.96551724,4.99943964 10.3809483,3.07633619 12.1572414,2.75581895 C14.6451724,2.3064224 16.8103448,4.20711205 16.8103448,6.61211205 L16.8103448,8.18107757 Z" id="Stroke-1"></path>
                <path stroke="#000" d="M25.7758621,12.887931 C25.7758621,20.005431 20.005431,25.7758621 12.887931,25.7758621 C5.77043103,25.7758621 0,20.005431 0,12.887931 C0,5.77043103 5.77043103,0 12.887931,0 C20.005431,0 25.7758621,5.77043103 25.7758621,12.887931 Z" id="Stroke-3"></path>
                <path stroke="#000" d="M3.5862069,21.6405172 C5.02068966,18.412931 8.41637931,16.137931 12.3724138,16.137931 C16.3284483,16.137931 19.7241379,18.412931 21.1586207,21.6405172" id="Stroke-5"></path>
            </g>
        </g>
    </g>
</svg>