<svg width="28px" height="26px" viewBox="0 0 28 26" version="1.1" xmlns="http://www.w3.org/2000/svg" xmlns:xlink="http://www.w3.org/1999/xlink">
    <g id="Accout-Pages" stroke="none" stroke-width="1" fill="none" fill-rule="evenodd" stroke-linejoin="round">
        <g id="Proccess-S1-" transform="translate(-887.000000, -270.000000)" class="color-stroke" stroke-width="1.5">
            <g id="icons" transform="translate(160.000000, 270.000000)">
                <g id="Group-9" transform="translate(728.000000, 1.000000)">
                    <path style=" fill: #000;" d="M7.58333333,13.5416667 L22.3914167,13.5416667 C22.9125,13.5416667 23.361,13.169 23.4563333,12.6565833 L25.4583333,2.70833333 L4.33333333,2.70833333" id="Stroke-1"></path>
                    <path style=" fill: #000;" d="M11.375,21.125 C11.375,22.3220833 10.4054167,23.2916667 9.20833333,23.2916667 C8.01125,23.2916667 7.04166667,22.3220833 7.04166667,21.125 C7.04166667,19.9279167 8.01125,18.9583333 9.20833333,18.9583333 C10.4054167,18.9583333 11.375,19.9279167 11.375,21.125 Z" id="Stroke-3" stroke-linecap="round"></path>
                    <path style=" fill: #000;" d="M23.2916667,21.125 C23.2916667,22.3220833 22.3220833,23.2916667 21.125,23.2916667 C19.9279167,23.2916667 18.9583333,22.3220833 18.9583333,21.125 C18.9583333,19.9279167 19.9279167,18.9583333 21.125,18.9583333 C22.3220833,18.9583333 23.2916667,19.9279167 23.2916667,21.125 Z" id="Stroke-5" stroke-linecap="round"></path>
                    <path style=" fill: #000;" d="M0.541666667,0.541666667 L2.95966667,0.541666667 C3.45041667,0.541666667 3.87941667,0.872083333 4.00616667,1.3455 L7.696,15.1829167 C7.9495,16.1319167 8.8075,16.7916667 9.79008333,16.7916667 L23.2916667,16.7916667" id="Stroke-7" stroke-linecap="round"></path>
                </g>
            </g>
        </g>
    </g>
</svg>